<?xml version="1.0" standalone="no"?>
<!DOCTYPE svg PUBLIC "-//W3C//DTD SVG 20010904//EN"
 "http://www.w3.org/TR/2001/REC-SVG-20010904/DTD/svg10.dtd">
<svg version="1.0" xmlns="http://www.w3.org/2000/svg"
 width="16.000000pt" height="16.000000pt" viewBox="0 0 16.000000 16.000000"
 preserveAspectRatio="xMidYMid meet">
<metadata>
Created by potrace 1.11, written by Peter Selinger 2001-2013
</metadata>
<g transform="translate(0.000000,16.000000) scale(0.003200,-0.003200)"
fill="#000000" stroke="none">
<path d="M1456 3382 l-1029 -927 306 -3 307 -2 0 -835 0 -835 1460 0 1460 0 0
835 0 835 307 2 306 3 -1027 925 c-565 509 -1035 926 -1044 927 -10 2 -438
-377 -1046 -925z m1832 -1194 l2 -788 -200 0 -200 0 0 790 0 790 198 -2 197
-3 3 -787z m-1047 395 c285 -214 518 -391 519 -395 0 -8 -1035 -788 -1045
-788 -3 0 -5 353 -5 785 0 432 3 785 7 785 3 0 239 -174 524 -387z"/>
</g>
</svg>
