<?xml version="1.0" standalone="no"?>
<!DOCTYPE svg PUBLIC "-//W3C//DTD SVG 20010904//EN"
 "http://www.w3.org/TR/2001/REC-SVG-20010904/DTD/svg10.dtd">
<svg version="1.0" xmlns="http://www.w3.org/2000/svg"
 width="16.000000pt" height="16.000000pt" viewBox="0 0 16.000000 16.000000"
 preserveAspectRatio="xMidYMid meet">
<metadata>
Created by potrace 1.11, written by Peter Selinger 2001-2013
</metadata>
<g transform="translate(0.000000,16.000000) scale(0.003200,-0.003200)"
fill="#000000" stroke="none">
<path d="M1458 3438 l-1036 -933 309 -3 309 -2 0 -835 0 -835 1460 0 1460 0 0
835 0 835 309 2 309 3 -1033 930 c-569 511 -1037 931 -1042 932 -5 2 -475
-417 -1045 -929z m1294 -206 c320 -86 579 -314 696 -612 55 -140 67 -210 67
-380 -1 -185 -21 -282 -89 -426 -59 -124 -115 -204 -205 -295 -129 -129 -302
-227 -477 -271 -129 -32 -372 -32 -492 0 -390 106 -674 404 -754 792 -26 124
-21 335 10 452 46 172 129 322 250 449 145 154 321 253 532 300 116 26 349 21
462 -9z"/>
<path d="M1972 2239 c3 -492 4 -533 20 -543 14 -8 25 -7 50 7 37 20 567 424
611 465 54 51 53 53 -270 295 -164 123 -324 242 -356 265 l-57 43 2 -532z"/>
<path d="M2768 2518 c-1 -139 -3 -275 -3 -303 0 -27 -2 -52 -5 -55 -3 -3 -4
-104 -2 -226 l3 -221 50 -11 c63 -15 91 -15 162 -1 l55 11 6 82 c3 44 11 271
17 503 11 390 11 424 -5 447 -16 26 -18 26 -146 26 l-130 0 -2 -252z"/>
</g>
</svg>
